<?xml version="1.0" encoding="utf-8"?>
<!-- Generator: Adobe Illustrator 17.1.0, SVG Export Plug-In . SVG Version: 6.00 Build 0)  -->
<!DOCTYPE svg PUBLIC "-//W3C//DTD SVG 1.1//EN" "http://www.w3.org/Graphics/SVG/1.1/DTD/svg11.dtd">
<svg version="1.1" id="Layer_1" xmlns="http://www.w3.org/2000/svg" xmlns:xlink="http://www.w3.org/1999/xlink" x="0px" y="0px"
	 viewBox="0 0 177.1 177.1" enable-background="new 0 0 177.1 177.1" xml:space="preserve">
<g>
	<path fill="#FFFFFF" d="M88.2,51.2c-23.8,0-47.7,0-71.5,0c-9.8,0-15.2-4.6-15.1-12.6c0.1-7.7,5.4-12.2,14.7-12.2
		c48.2,0,96.3,0,144.5,0c9.4,0,14.6,4.5,14.7,12.2c0.1,8-5.3,12.6-15.1,12.6C136.3,51.3,112.2,51.2,88.2,51.2z"/>
	<path fill="#FFFFFF" d="M88.9,76.2c23.6,0,47.1,0,70.7,0c10.6,0,16,4.3,15.9,12.6c-0.1,8-5.5,12.2-15.5,12.2c-47.7,0-95.3,0-143,0
		C7,101,1.7,96.8,1.6,88.8c-0.1-8.2,5.3-12.6,15.9-12.6C41.3,76.1,65.1,76.2,88.9,76.2z"/>
	<path fill="#FFFFFF" d="M88.2,150.7c-23.8,0-47.7,0-71.5,0c-9.8,0-15.2-4.6-15.1-12.6c0.1-7.7,5.4-12.2,14.7-12.2
		c48.2,0,96.3,0,144.5,0c9.4,0,14.6,4.5,14.7,12.2c0.1,8-5.3,12.6-15.1,12.6C136.3,150.7,112.2,150.7,88.2,150.7z"/>
</g>
</svg>
